<svg width="44" height="41" viewBox="0 0 44 41" fill="none" xmlns="http://www.w3.org/2000/svg">
<path d="M34.3407 21.357C29.069 21.357 24.7962 25.6065 24.7962 30.8486C24.7962 36.0911 29.069 40.3415 34.3407 40.3415C39.6116 40.3415 43.8844 36.0911 43.8844 30.8486C43.8844 25.6065 39.6116 21.357 34.3407 21.357ZM9.5441 21.3575C4.27324 21.358 0 25.6065 0 30.8491C0 36.0911 4.27324 40.3411 9.5441 40.3411C14.8154 40.3411 19.0887 36.0911 19.0887 30.8491C19.0887 25.6065 14.8154 21.3575 9.54363 21.3575H9.5441ZM31.4863 9.49201C31.4863 14.7341 27.2135 18.9849 21.9427 18.9849C16.6709 18.9849 12.3981 14.7341 12.3981 9.49201C12.3981 4.24992 16.6709 0 21.9426 0C27.2135 0 31.4858 4.24992 31.4858 9.49201H31.4863Z" fill="url(#paint0_radial_805_4583)"/>
<defs>
<radialGradient id="paint0_radial_805_4583" cx="0" cy="0" r="1" gradientUnits="userSpaceOnUse" gradientTransform="translate(21.9481 22.0727) scale(29.0954 26.7464)">
<stop stop-color="#FFB900"/>
<stop offset="0.6" stop-color="#F95D8F"/>
<stop offset="0.999" stop-color="#F95353"/>
</radialGradient>
</defs>
</svg>
