<svg width="28" height="42" viewBox="0 0 28 42" fill="none" xmlns="http://www.w3.org/2000/svg">
<g clip-path="url(#clip0_805_4587)">
<path d="M6.90272 41.0531C10.7114 41.0531 13.8025 37.9878 13.8025 34.2109V27.3687H6.90272C3.09404 27.3687 0.00292969 30.434 0.00292969 34.2109C0.00292969 37.9878 3.09404 41.0531 6.90272 41.0531Z" fill="#0ACF83"/>
<path d="M0.00292969 20.5265C0.00292969 16.7497 3.09404 13.6844 6.90272 13.6844H13.8025V27.3687H6.90272C3.09404 27.3687 0.00292969 24.3034 0.00292969 20.5265Z" fill="#A259FF"/>
<path d="M0.00292969 6.84219C0.00292969 3.0653 3.09404 0 6.90272 0H13.8025V13.6844H6.90272C3.09404 13.6844 0.00292969 10.6191 0.00292969 6.84219Z" fill="#F24E1E"/>
<path d="M13.8027 0H20.7025C24.5112 0 27.6023 3.0653 27.6023 6.84219C27.6023 10.6191 24.5112 13.6844 20.7025 13.6844H13.8027V0Z" fill="#FF7262"/>
<path d="M27.6023 20.5265C27.6023 24.3034 24.5112 27.3687 20.7025 27.3687C16.8938 27.3687 13.8027 24.3034 13.8027 20.5265C13.8027 16.7497 16.8938 13.6844 20.7025 13.6844C24.5112 13.6844 27.6023 16.7497 27.6023 20.5265Z" fill="#1ABCFE"/>
</g>
<defs>
<clipPath id="clip0_805_4587">
<rect width="27.6047" height="41.0531" fill="white"/>
</clipPath>
</defs>
</svg>
