<svg width="42" height="40" viewBox="0 0 42 40" fill="none" xmlns="http://www.w3.org/2000/svg">
<g clip-path="url(#clip0_790_3816)">
<path d="M40.9627 15.8472L40.9068 15.7002L35.2678 1.18392C35.1536 0.898888 34.9504 0.657097 34.6879 0.493543C34.4919 0.36974 34.2692 0.292967 34.0378 0.269376C33.8064 0.245783 33.5726 0.276031 33.355 0.357692C33.1377 0.439355 32.9424 0.570159 32.7855 0.739624C32.6286 0.909086 32.5139 1.11249 32.4509 1.33354L28.6445 12.8337H13.2302L9.42383 1.33354C9.36033 1.11283 9.24548 0.9098 9.08838 0.740661C8.93129 0.571522 8.73631 0.440949 8.519 0.359353C8.30171 0.277758 8.06811 0.247399 7.8368 0.270697C7.60552 0.293996 7.38294 0.370305 7.18682 0.493543C6.92421 0.657097 6.7211 0.898888 6.60696 1.18392L0.970572 15.7028L0.912054 15.8472C0.100577 17.9401 0.000606403 20.2366 0.627212 22.3906C1.25382 24.5445 2.57303 26.439 4.38594 27.7882L4.40722 27.804L4.45507 27.8407L13.0334 34.1854L17.2892 37.359L19.8747 39.2884C20.1781 39.5146 20.5479 39.637 20.928 39.637C21.3082 39.637 21.678 39.5146 21.9814 39.2884L24.5668 37.359L28.8227 34.1854L37.4622 27.804L37.4861 27.7856C39.2989 26.4369 40.6182 24.5429 41.2454 22.3896C41.8724 20.2362 41.7732 17.94 40.9627 15.8472Z" fill="#E24329"/>
<path d="M40.963 15.8471L40.9071 15.7001C38.1597 16.2565 35.5708 17.4057 33.3263 19.0654L20.9443 28.3054L28.8284 34.1854L37.4678 27.804L37.4918 27.7856C39.3037 26.4361 40.622 24.5419 41.2481 22.3886C41.874 20.2352 41.774 17.9394 40.963 15.8471Z" fill="#FC6D26"/>
<path d="M13.0332 34.1854L17.2891 37.359L19.8745 39.2884C20.1779 39.5146 20.5477 39.637 20.9279 39.637C21.3081 39.637 21.6778 39.5146 21.9812 39.2884L24.5667 37.359L28.8226 34.1854L20.9385 28.3054L13.0332 34.1854Z" fill="#FCA326"/>
<path d="M8.54871 19.0654C6.30495 17.4066 3.71705 16.2583 0.970572 15.7028L0.912054 15.8472C0.100577 17.9401 0.000606433 20.2367 0.627212 22.3906C1.25382 24.5445 2.57303 26.439 4.38594 27.7882L4.40722 27.804L4.45507 27.8407L13.0334 34.1854L20.9227 28.3054L8.54871 19.0654Z" fill="#FC6D26"/>
</g>
<defs>
<clipPath id="clip0_790_3816">
<rect width="41.7609" height="39.6375" fill="white"/>
</clipPath>
</defs>
</svg>
