<svg width="50" height="51" viewBox="0 0 50 51" fill="none" xmlns="http://www.w3.org/2000/svg">
<g clip-path="url(#clip0_790_3813)">
<path d="M28.9588 49.7376C27.659 51.3616 25.0235 50.4718 24.9921 48.3982L24.5342 18.0681H45.0892C48.8122 18.0681 50.8886 22.3346 48.5736 25.2275L28.9588 49.7376Z" fill="url(#paint0_linear_790_3813)"/>
<path d="M28.9588 49.7376C27.659 51.3616 25.0235 50.4718 24.9921 48.3982L24.5342 18.0681H45.0892C48.8122 18.0681 50.8886 22.3346 48.5736 25.2275L28.9588 49.7376Z" fill="url(#paint1_linear_790_3813)" fill-opacity="0.2"/>
<path d="M20.5988 0.933998C21.8986 -0.690217 24.5341 0.199736 24.5654 2.27344L24.7661 32.6034H4.46836C0.745182 32.6034 -1.3313 28.337 0.98388 25.444L20.5988 0.933998Z" fill="#3ECF8E"/>
</g>
<defs>
<linearGradient id="paint0_linear_790_3813" x1="24.5342" y1="24.793" x2="42.7595" y2="32.4971" gradientUnits="userSpaceOnUse">
<stop stop-color="#249361"/>
<stop offset="1" stop-color="#3ECF8E"/>
</linearGradient>
<linearGradient id="paint1_linear_790_3813" x1="16.4349" y1="13.7906" x2="24.6645" y2="29.4047" gradientUnits="userSpaceOnUse">
<stop/>
<stop offset="1" stop-opacity="0"/>
</linearGradient>
<clipPath id="clip0_790_3813">
<rect width="49.5469" height="50.9625" fill="white"/>
</clipPath>
</defs>
</svg>
