<svg width="36" height="27" viewBox="0 0 36 27" fill="none" xmlns="http://www.w3.org/2000/svg">
<g clip-path="url(#clip0_790_3815)">
<path d="M16.3567 7.06069V26.7365H0.0595703L16.3567 7.06069ZM16.3567 0C16.3567 2.16113 15.4982 4.23375 13.97 5.76191C12.4419 7.29005 10.3693 8.14856 8.20814 8.14856C6.04701 8.14856 3.97439 7.29005 2.44623 5.76191C0.918078 4.23375 0.0595703 2.16113 0.0595703 0H16.3567ZM19.0415 26.7382C19.0415 24.5771 19.8999 22.5044 21.4282 20.9764C22.9563 19.4481 25.029 18.5897 27.1901 18.5897C29.3512 18.5897 31.4239 19.4481 32.9519 20.9764C34.4802 22.5044 35.3386 24.5771 35.3386 26.7382H19.0415ZM19.0415 19.6775V0H35.3421L19.0415 19.6758V19.6775Z" fill="#03363D"/>
</g>
<defs>
<clipPath id="clip0_790_3815">
<rect width="35.3906" height="26.8481" fill="white"/>
</clipPath>
</defs>
</svg>
